HIERARCHY
ROOT Hips
{
	OFFSET -14.64140 90.27770 -84.91600
	CHANNELS 6 Xposition Yposition Zposition Zrotation Xrotation Yrotation
	JOINT Spine
	{
		OFFSET 0.00000 13.20850 -1.60436
		CHANNELS 3 Zrotation Xrotation Yrotation
		JOINT Spine1
		{
			OFFSET 0.00000 8.61716 0.00000
			CHANNELS 3 Zrotation Xrotation Yrotation
			JOINT Spine2
			{
				OFFSET 0.00000 8.61717 0.00000
				CHANNELS 3 Zrotation Xrotation Yrotation
				JOINT Spine3
				{
					OFFSET 0.00000 8.61717 0.00000
					CHANNELS 3 Zrotation Xrotation Yrotation
					JOINT Neck
					{
						OFFSET 0.00000 11.07920 1.10792
						CHANNELS 3 Zrotation Xrotation Yrotation
						JOINT Neck1
						{
							OFFSET 0.00000 7.08032 0.00000
							CHANNELS 3 Zrotation Xrotation Yrotation
							JOINT Head
							{
								OFFSET 0.00000 7.08031 0.00000
								CHANNELS 3 Zrotation Xrotation Yrotation
								End site
								{
									OFFSET 0.00000 0.00000 0.00000
								}
							}
						}
					}
					JOINT RightShoulder
					{
						OFFSET -0.01000 7.91373 5.19711
						CHANNELS 3 Zrotation Xrotation Yrotation
						JOINT RightArm
						{
							OFFSET -18.41580 0.00000 0.00000
							CHANNELS 3 Zrotation Xrotation Yrotation
							JOINT RightForeArm
							{
								OFFSET -29.11090 0.00000 0.00000
								CHANNELS 3 Zrotation Xrotation Yrotation
								JOINT RightHand
								{
									OFFSET -24.65040 0.00000 0.00000
									CHANNELS 3 Zrotation Xrotation Yrotation
									JOINT RightHandThumb1
									{
										OFFSET -5.35114 -0.85590 3.97906
										CHANNELS 3 Zrotation Xrotation Yrotation
										JOINT RightHandThumb2
										{
											OFFSET -4.52789 0.00000 0.00000
											CHANNELS 3 Zrotation Xrotation Yrotation
											JOINT RightHandThumb3
											{
												OFFSET -2.46976 0.00000 0.00000
												CHANNELS 3 Zrotation Xrotation Yrotation
												End site
												{
													OFFSET 0.00000 0.00000 0.00000
												}
											}
										}
									}
									JOINT RightHandIndex1
									{
										OFFSET -14.26970 0.00000 2.88139
										CHANNELS 3 Zrotation Xrotation Yrotation
										JOINT RightHandIndex2
										{
											OFFSET -5.48836 0.00000 0.00000
											CHANNELS 3 Zrotation Xrotation Yrotation
											JOINT RightHandIndex3
											{
												OFFSET -3.01859 0.00000 0.00000
												CHANNELS 3 Zrotation Xrotation Yrotation
												End site
												{
													OFFSET 0.00000 0.00000 0.00000
												}
											}
										}
									}
									JOINT RightHandMiddle1
									{
										OFFSET -14.26970 0.00000 -0.09147
										CHANNELS 3 Zrotation Xrotation Yrotation
										JOINT RightHandMiddle2
										{
											OFFSET -6.17441 0.00000 0.00000
											CHANNELS 3 Zrotation Xrotation Yrotation
											JOINT RightHandMiddle3
											{
												OFFSET -3.56743 0.00000 0.00000
												CHANNELS 3 Zrotation Xrotation Yrotation
												End site
												{
													OFFSET 0.00000 0.00000 0.00000
												}
											}
										}
									}
									JOINT RightHandRing1
									{
										OFFSET -12.69180 0.00000 -3.06433
										CHANNELS 3 Zrotation Xrotation Yrotation
										JOINT RightHandRing2
										{
											OFFSET -5.62556 0.00000 0.00000
											CHANNELS 3 Zrotation Xrotation Yrotation
											JOINT RightHandRing3
											{
												OFFSET -3.56744 0.00000 0.00000
												CHANNELS 3 Zrotation Xrotation Yrotation
												End site
												{
													OFFSET 0.00000 0.00000 0.00000
												}
											}
										}
									}
									JOINT RightHandPinky1
									{
										OFFSET -11.11390 0.00000 -6.03719
										CHANNELS 3 Zrotation Xrotation Yrotation
										JOINT RightHandPinky2
										{
											OFFSET -4.52789 0.00000 0.00000
											CHANNELS 3 Zrotation Xrotation Yrotation
											JOINT RightHandPinky3
											{
												OFFSET -2.46976 0.00000 0.00000
												CHANNELS 3 Zrotation Xrotation Yrotation
												End site
												{
													OFFSET 0.00000 0.00000 0.00000
												}
											}
										}
									}
								}
							}
						}
					}
					JOINT LeftShoulder
					{
						OFFSET 0.01000 7.91373 5.19711
						CHANNELS 3 Zrotation Xrotation Yrotation
						JOINT LeftArm
						{
							OFFSET 18.41580 0.00000 0.00000
							CHANNELS 3 Zrotation Xrotation Yrotation
							JOINT LeftForeArm
							{
								OFFSET 29.11090 0.00000 0.00000
								CHANNELS 3 Zrotation Xrotation Yrotation
								JOINT LeftHand
								{
									OFFSET 24.65040 0.00000 0.00000
									CHANNELS 3 Zrotation Xrotation Yrotation
									JOINT LeftHandThumb1
									{
										OFFSET 5.35114 -0.85590 3.97906
										CHANNELS 3 Zrotation Xrotation Yrotation
										JOINT LeftHandThumb2
										{
											OFFSET 4.52789 0.00000 0.00000
											CHANNELS 3 Zrotation Xrotation Yrotation
											JOINT LeftHandThumb3
											{
												OFFSET 2.46977 0.00000 0.00000
												CHANNELS 3 Zrotation Xrotation Yrotation
												End site
												{
													OFFSET 0.00000 0.00000 0.00000
												}
											}
										}
									}
									JOINT LeftHandIndex1
									{
										OFFSET 14.26970 0.00000 2.88139
										CHANNELS 3 Zrotation Xrotation Yrotation
										JOINT LeftHandIndex2
										{
											OFFSET 5.48836 0.00000 0.00000
											CHANNELS 3 Zrotation Xrotation Yrotation
											JOINT LeftHandIndex3
											{
												OFFSET 3.01859 0.00000 0.00000
												CHANNELS 3 Zrotation Xrotation Yrotation
												End site
												{
													OFFSET 0.00000 0.00000 0.00000
												}
											}
										}
									}
									JOINT LeftHandMiddle1
									{
										OFFSET 14.26970 0.00000 -0.09147
										CHANNELS 3 Zrotation Xrotation Yrotation
										JOINT LeftHandMiddle2
										{
											OFFSET 6.17440 0.00000 0.00000
											CHANNELS 3 Zrotation Xrotation Yrotation
											JOINT LeftHandMiddle3
											{
												OFFSET 3.56744 0.00000 0.00000
												CHANNELS 3 Zrotation Xrotation Yrotation
												End site
												{
													OFFSET 0.00000 0.00000 0.00000
												}
											}
										}
									}
									JOINT LeftHandRing1
									{
										OFFSET 12.69180 0.00000 -3.06433
										CHANNELS 3 Zrotation Xrotation Yrotation
										JOINT LeftHandRing2
										{
											OFFSET 5.62556 0.00000 0.00000
											CHANNELS 3 Zrotation Xrotation Yrotation
											JOINT LeftHandRing3
											{
												OFFSET 3.56744 0.00000 0.00000
												CHANNELS 3 Zrotation Xrotation Yrotation
												End site
												{
													OFFSET 0.00000 0.00000 0.00000
												}
											}
										}
									}
									JOINT LeftHandPinky1
									{
										OFFSET 11.11390 0.00000 -6.03719
										CHANNELS 3 Zrotation Xrotation Yrotation
										JOINT LeftHandPinky2
										{
											OFFSET 4.52789 0.00000 0.00000
											CHANNELS 3 Zrotation Xrotation Yrotation
											JOINT LeftHandPinky3
											{
												OFFSET 2.46976 0.00000 0.00000
												CHANNELS 3 Zrotation Xrotation Yrotation
												End site
												{
													OFFSET 0.00000 0.00000 0.00000
												}
											}
										}
									}
								}
							}
						}
					}
					JOINT pCube4
					{
						OFFSET 0.00000 10.91090 1.10792
						CHANNELS 3 Zrotation Xrotation Yrotation
						End site
						{
							OFFSET 0.00000 0.00000 0.00000
						}
					}
				}
			}
		}
	}
	JOINT RightUpLeg
	{
		OFFSET -9.98441 0.00000 0.00000
		CHANNELS 3 Zrotation Xrotation Yrotation
		JOINT RightLeg
		{
			OFFSET 0.00000 -42.11790 0.00000
			CHANNELS 3 Zrotation Xrotation Yrotation
			JOINT RightFoot
			{
				OFFSET 0.00000 -45.00020 -0.00001
				CHANNELS 3 Zrotation Xrotation Yrotation
				JOINT RightForeFoot
				{
					OFFSET 0.00000 -3.74820 0.00000
					CHANNELS 3 Zrotation Xrotation Yrotation
					JOINT RightToeBase
					{
						OFFSET 0.00000 0.06325 14.43120
						CHANNELS 3 Zrotation Xrotation Yrotation
						End site
						{
							OFFSET 0.00000 0.00000 0.00000
						}
					}
				}
			}
		}
	}
	JOINT LeftUpLeg
	{
		OFFSET 9.98441 0.00000 0.00000
		CHANNELS 3 Zrotation Xrotation Yrotation
		JOINT LeftLeg
		{
			OFFSET 0.00000 -42.11800 0.00000
			CHANNELS 3 Zrotation Xrotation Yrotation
			JOINT LeftFoot
			{
				OFFSET 0.00000 -45.00070 0.00000
				CHANNELS 3 Zrotation Xrotation Yrotation
				JOINT LeftForeFoot
				{
					OFFSET 0.00000 -3.74824 0.00000
					CHANNELS 3 Zrotation Xrotation Yrotation
					JOINT LeftToeBase
					{
						OFFSET 0.00000 0.06325 14.43110
						CHANNELS 3 Zrotation Xrotation Yrotation
						End site
						{
							OFFSET 0.00000 0.00000 0.00000
						}
					}
				}
			}
		}
	}
}
MOTION
Frames: 4
Frame Time: 0.050000
-0.04504437541249304 -0.030645041380691997 0.014291063364762147 0.024953794379121142 0.036783804201169744 0.04345048982572944 3.5701165552064613 4.642506494312685 -1.8821965493917623 -0.876771426648512 3.5417486518534282 0.3476986853782618 -0.5412715271664109 -0.6434766567991409 -0.40404993428858754 -0.49809031886953115 -0.18799847457781826 -0.49791794452775723 -0.8664594046709405 11.021565551925637 0.45838449970460843 -0.02191886525294873 -1.2642547143694405 1.2979442507406183 -0.013742999286171662 -17.76570449628642 0.10010865343179828 -7.307481410075106 3.003335338319263 -15.945984443357295 76.21000103837572 -0.7765855391276905 6.219863788896598 7.7367548944887625 3.229249641991786 86.56396054973662 8.956602438484133 -0.2606600773168828 -2.3997483366758487 4.5098797110652 -0.12935029207897775 -1.594045586432296 0.04596811807286973 0.014871716807938197 -56.19646872423702 0.009615657662678103 -0.011236789008745428 -56.24634489015215 -38.759306267763435 0.006532758513535029 -0.03722830477817214 0.008827551701794044 -0.004619362455179033 -0.03768820119884941 -0.017875568995169403 0.005765932699770864 0.008872283493678457 -36.65334336360227 -0.028042156164020088 0.03257191118740571 -0.013325572351258133 -0.024409811323464366 0.036031829985158755 0.0010996665783827332 0.011262581733374065 0.003367668780939135 -19.755160195871742 0.013301382064950863 -0.039581168763354546 -0.025069943102821866 -0.038680341079679256 -0.028079315415396173 0.046151744656962396 -0.03462035900050926 0.024874781265254674 24.07633482896243 -0.013070926968903482 0.017791089295484265 28.816851961845686 -0.01293628451245521 0.038297030302581796 28.88465205178535 0.04220678299959493 0.009522949350930175 9.57564422457894 2.39554905807304 13.411683631476386 -68.59383090757957 19.00540447285098 -21.81159557433023 -6.141528437076265 -2.7330046853278027 -88.23388039319698 -7.7766658376447 -3.122742817907424 0.018706935235609803 -0.4790308266745826 0.025722079480923025 -8.166466097992318 0.004848561786111655 -0.041953806666312765 44.55167879343051 0.01891606320077158 0.022591228931973347 44.55188783329355 12.453691205185871 0.0454771107294845 -0.03997783303574099 0.0006067299939925353 0.0107282257151867 -0.010221661461446891 0.039750940943955176 0.04159876961017668 0.016185828139308547 11.07225739583268 -0.02652438491916312 0.0025903402901143505 0.004231945449588704 0.01493245756859781 0.012586753406089652 -0.035595334127756 0.0489501799065934 -0.035051906908365286 4.796901903395382 0.0316244184658053 0.049073401545804016 -0.02456789259278343 -0.017228169770287752 -0.03197620544786165 0.008796662874563672 0.0038774726867633162 0.032669399114700085 -5.650552736743655 0.018480249248010724 0.003032835183681218 -6.720200615948545 -0.005247351360868761 -0.04550173477142661 -6.744750348067392 -0.01932024434547287 -0.041361932995780414 -0.017163324525073406 0.03948196180305692 -0.030041452973668295 8.079351193493192 3.4498366469579964 -19.216506132885268 0.0059732241714560135 10.439561612818373 0.014019053828844389 -5.630595229553624 -15.668345486470251 3.17591736851741 -0.0307427120492138 0.04350038173716368 -0.009143241898752178 -0.022008267732905047 4.658320302796874 0.04495491105476785 12.486889107195614 -8.24988197488805 6.882514253171983 -0.018911799256885815 46.402561966862784 -0.032827254093085456 -4.293029677489574 -14.731922566185233 -3.8368608632080154 0.002965361370260471 -0.025797708722304306 -0.026417069179293498 -0.018768220270515307 -10.752593788717078 0.04114681325809542 
0.026403278435486635 0.022088578836601015 -0.0036302866601189334 -0.009824802031215017 0.0477418428064366 -0.016657246626921567 3.510851190021268 4.554188833273455 -1.8340645934173978 -0.8482721806852244 3.5401723094961866 0.34141777446817556 -0.5894895594563392 -0.6439878603187605 -0.33549402124177197 -0.33169579740546973 -0.21350901217677065 -0.5435246837254132 -0.7621094656164836 11.16687527027168 0.3113611230653913 0.02655146951942359 -1.1423099273506503 0.8310878959228821 0.0036719513058378127 -17.489424520622027 0.07393427112692719 -7.223815032575043 2.870149416152223 -16.014620515652897 75.29091202731408 -0.25290767245597523 7.18586158296074 8.284241246762853 3.542583720362759 86.69082075511652 9.337082447263546 -0.2019100893728441 -2.329282207079644 4.567662568701643 -0.16284640836372277 -1.6188606146506335 0.0331633537406537 -0.004290069036218048 -56.23762938794054 0.0437473905220674 0.04698434841461557 -56.267934470780176 -38.74330139786662 -0.03086493324382312 0.048845635331230555 -0.009570239533539616 0.02415374784051228 0.019442079493094042 0.030117235229391397 -0.023808536418135334 0.02371818381846174 -36.7231681728868 0.01846628139680052 0.03569933029515935 0.00030656090392457787 0.004866673947224797 0.002551984661983445 0.0005780988903086133 -0.04883455077829389 -0.024150268758027782 -19.777447295263205 0.034108551942191076 0.007026358624737942 -0.01633328139329167 -0.046380888242236 0.04735024174587847 -0.010848754337833767 0.046833761128728425 0.019514247143704352 24.072047949420956 0.039832331216627104 0.029170450978705527 28.888084568103533 0.018007975556332226 -0.02686268091374775 28.876349223531257 -0.01508630028871385 -0.0003761180716730532 9.179692809948673 2.321727180344178 13.379978185082052 -68.28068011983973 20.44049939358311 -21.816118634949003 -5.656104180373849 -1.9445378376095241 -88.63202213557913 -9.08651345889639 -3.158188199086274 0.2734201534045673 -0.5080325445434484 0.021911462677889633 -8.148360431906346 -0.025863781042194254 -0.03114349086135205 44.58614759377519 0.0014072059169526017 0.046578252857154355 44.55655763999722 12.50801022651165 -0.0009352284498267972 0.02672657239602666 0.026972218865262222 -0.024908178493267284 -0.028980685440708694 0.012712003842028204 0.04887316588368988 0.017424967853250307 11.085222313297075 -0.024270756245085907 0.024863554185367783 0.023678066875348566 -0.033670598592054186 -0.023033856563754448 0.02474134549853715 0.022867921710392126 0.010398024141552132 4.794904202882234 -0.011120370534527553 -0.029677886985221603 -0.00385111347515352 0.012992938713688791 0.011998584137668222 0.0386403914117462 0.004734040610174452 0.020633346337754075 -5.5639379834298754 -0.0485218813028039 0.005782473097033868 -6.726439115012741 -0.005114259734823117 0.009691964426290804 -6.729575304864485 -0.012462830279682566 -0.01372076310433705 -0.0033155213936732894 0.040342231132656704 -0.00041702814899003733 8.069398552621383 3.4900926152706537 -19.232293444030894 -0.016441180816116206 10.395607967242602 0.005817654142018172 -5.594410531757853 -15.636521336930677 3.218525352590305 -0.03208278550631937 0.008415459286066894 -0.010501794199506833 0.011835838423124488 4.674389613601024 0.0039230308174461725 12.436053326626354 -8.204270974357087 6.897149862068038 0.014203069832727497 46.424492605750665 0.048183633442555 -4.315767845176447 -14.718740702384958 -3.8314179416884695 -0.006420271140699658 0.023279434027859314 0.03319550684153634 0.0014276762966953355 -10.712400053515328 -0.0011728572453656137 
0.03608382420793411 -0.011520133824333013 0.008042808984305278 0.040562435782983804 -0.03845425072646366 0.037628833740931004 3.412890929751291 4.447592602586983 -1.877836091287761 -0.8019625644946062 3.5758877448799447 0.3638233858218843 -0.611965079521394 -0.6057263708344262 -0.3916073800679885 -0.3383079394042231 -0.1431493964414184 -0.5060617346422115 -0.6317180290373752 11.260241407424514 0.19026301042654548 -0.010773880591577533 -0.984258960630631 0.5170452315635323 0.07473079217886344 -17.121337109383628 0.032452547849781854 -7.29821712971979 2.9082107443770138 -16.03766961669867 74.44399859508698 -0.4528467773535875 8.078687508945624 8.693691875538695 3.6314531513213795 87.23506861019877 9.76979356228865 -0.23841553480162878 -2.506547407303623 4.5343219726964366 -0.08346368014123448 -1.5751000949758216 0.03670160406772425 -0.03812485041782854 -56.28265109597731 0.011493488364542535 -0.022951275204227954 -56.22784478074062 -38.768039795547445 0.039848557080688046 0.012773013534231825 -0.00602498795523199 -0.038616653891245176 -0.006107678382486046 0.04078434605901821 0.015392533167118947 0.033847590995726456 -36.70723325571114 -0.012546827443875214 -0.0349186218617504 0.04194082719427374 0.04852524836189321 0.013420944602277583 0.026392990304412094 0.03354519592536595 0.036017028325324094 -19.793733506826612 -0.022352644331511615 0.04257049430144621 -0.03010718354626537 -0.037852744207408355 0.035894091023082025 -0.03181044870958236 0.019989432002471674 -0.009023579777245364 24.045183229777738 0.049272621604825734 0.0023449194362000093 28.829336420799745 0.014852447148401091 -0.022416652519499727 28.880620859699754 -0.04469649614244532 0.03488325439002337 9.045716379954676 2.2781870905225476 13.411906363266846 -67.90355036637689 21.496064779358804 -21.59319949351616 -5.090629750775183 -1.6228783042456607 -89.10203852122628 -10.197625488067931 -3.368995817281281 0.5826349085499714 -0.4960579153517058 0.04444959800074681 -8.132832138333367 -0.001546846443264901 0.011713568618500494 44.59882328792332 0.022270903843373605 -0.004771619718846434 44.568405048636286 12.505525736793834 0.038880224171606234 -0.0007832293849688907 0.03243397729678594 -0.005335423462321847 0.018931579750803788 0.0008330746485195829 -0.028979377082139896 -0.009862843920558008 11.120799183736251 -0.017195860762189468 -0.031079816421283733 0.04956629242028216 -0.005001538302669575 -0.02880856529602968 -0.03100096936905318 -0.042553222532488555 0.009782508671970287 4.782307160946955 0.033169048347304976 0.025583771439619825 -0.04666956722946033 0.044934125978600664 0.02601978044108995 0.03970139825646034 -0.00737478269464803 -0.015116504118361278 -5.61979897127073 0.030699494378494563 -0.030594494293111476 -6.68469228939074 -0.012102550209087907 0.0045001754655169725 -6.755265098133144 -0.03849369957642727 0.016188086578417818 -0.0023324547799947574 -0.03200015265614529 -0.04611894795392668 8.010720413112983 3.475379930826971 -19.210584990535725 0.017471890301567698 10.361412880027016 -0.012598537364357454 -5.637383530423685 -15.706202569386877 3.15451523015493 0.022133731049631854 -0.030084176324413427 0.040774152785590344 0.011893513645376122 4.698698014572713 0.012976420272100334 12.480969192844787 -8.25479262172556 6.925381307757695 0.005339665999149948 46.35603361881919 -0.02225280613351358 -4.372834609404266 -14.726547182277073 -3.8077558942050462 -0.028087130300640435 -0.037041199913273155 -0.009832443767271588 0.01967371931476755 -10.739775121179997 -0.03928278838012288 
0.0233162767321589 0.010056224799221913 0.007668163544458474 -0.043264133823634594 0.0440301146784772 -0.01314469615534899 3.3105317033446346 4.393374259977237 -1.7769305175394934 -0.8490410353193294 3.4884181018719183 0.38716382065113736 -0.6326200053012583 -0.6464048449476675 -0.3101924929566224 -0.29669268451246006 -0.16050241079190963 -0.5316490770250898 -0.5582774593205487 11.44343319439083 -0.024913400982012703 0.025455386937139432 -0.7414411966586144 0.08715815606114553 0.0775457777274742 -16.767758333703274 -0.006371058349808273 -7.291734451473736 2.923779699510963 -16.059389208053396 73.33452159761676 -1.2191102988643427 8.737264850355931 9.674405173901082 3.5849582290979614 87.7801139150184 10.332481040739658 -0.2135950426725401 -2.7316140610907853 4.509048458115925 -0.10567631548995718 -1.5721024010237807 0.02145699275625735 0.0001590200835135316 -56.239251088628215 0.02537301576145158 0.018711766389299226 -56.19055343211722 -38.770907056651154 -0.030516821774182502 -0.005003933184635129 0.04027347354521935 -0.014211069116828876 -0.001858616893472701 0.040275023646132925 0.03206360479666695 -0.012755850477831657 -36.70055861682315 -1.5073345509432352e-05 -0.021195035468422704 0.003306954159996586 0.021154573246261393 -0.026537639028973183 0.015210504188802333 -0.034285725929122775 -0.04352248360568095 -19.725645109304896 -0.016884490867808907 0.013668380226466244 -0.028796437755531288 0.038365119611238174 -0.011625725234086033 0.04633539599456732 -0.011442619095196524 -0.017305517617382526 24.08232076287707 -0.037374512027799366 0.043508279614090595 28.858663511077648 -0.04556008476824563 -0.016704470852935728 28.87127943516931 -0.02436882206088789 0.0024543713483937174 8.783205951571778 2.2697101512955693 13.411825009552791 -67.48679540046024 21.934014537411347 -20.894253078773534 -6.009692290563346 -1.464170145636751 -89.49447413882481 -11.130367130239915 -3.6329045841014214 0.8025924376909835 -0.4260750249226669 0.054484138259498084 -8.150294700982764 0.03591188147537888 0.00032548782938955314 44.55334992780869 0.029615246482412202 0.0024848132275371343 44.55393457718745 12.463927032558265 -0.024091795441498254 0.024467632484037046 -0.04139833674589633 -0.02079652418947739 -0.023568492710172344 -0.02520043224569964 -0.04569596779208204 -0.047501252922949176 11.106163164763375 0.022112357656368656 -0.048003169211439635 -0.0003375293533375579 0.006525368046710304 -0.022031568614115617 0.02851037654744966 0.04778846333305075 0.02929106862965693 4.7894427660825185 0.04110510968858037 0.01350210866814631 -0.006826559784707142 -0.0319267606481963 -0.004847128712545101 0.047759177015259426 0.024789854830677537 -0.018133683111458673 -5.628511442268116 0.013634005419615899 -0.0037985374136332095 -6.731713531064913 -0.0302207760762226 0.015316532454329955 -6.689641656712905 0.02087073471495141 -0.016256303927671894 -0.016217360036661754 -0.02569247046535354 -0.009636438600860482 8.052562511259042 3.4721964421945906 -19.184177331429527 0.007942405166855493 10.403067857752466 0.024211051093091067 -5.595718179924087 -15.692927842236912 3.193290449831697 -0.047089295753789326 0.03491385048221838 -0.007642177636169034 -0.00290358315169385 4.706908821536257 0.014209652615908655 12.418832215164416 -8.25237644909324 6.844975985948492 0.027518869242495313 46.370711361328276 -0.02453497560469554 -4.314969349342763 -14.785856691930753 -3.863594152390049 0.03219571972208989 0.03941923960104905 0.033590020551037915 0.043132848497224055 -10.766926546969392 -0.04761385555476612 
